<svg xmlns="http://www.w3.org/2000/svg" viewBox="478 1284 25.94 32.737">
  <defs>
    <style>
      .cls-1 {
        fill: none;
      }

      .cls-2 {
        fill: #402b56;
      }

      .cls-3 {
        fill: #e74683;
      }

      .cls-4 {
        fill: #fff;
      }
    </style>
  </defs>
  <g id="Group_19" data-name="Group 19" transform="translate(478 1284)">
    <path id="Path_25" data-name="Path 25" class="cls-1" d="M16.184,6.3S7.445,8.381,4.255,8.519a.136.136,0,0,1-.139.139,2.613,2.613,0,0,0-.277,1.11c0,.416-.139.694-.139,1.11v.832a4.05,4.05,0,0,0,.277,1.248,7.845,7.845,0,0,0,7.491,5.271,7.845,7.845,0,0,0,7.491-5.271,4.05,4.05,0,0,0,.277-1.248v-.832a3.447,3.447,0,0,0,.139-1.11,1.049,1.049,0,0,0-.139-.555A10.258,10.258,0,0,1,16.184,6.3Z" transform="translate(1.432 2.439)"/>
    <path id="Path_26" data-name="Path 26" class="cls-1" d="M5.8,15.1h0Z" transform="translate(2.245 5.846)"/>
    <path id="Path_27" data-name="Path 27" class="cls-1" d="M3.032,8.5a1.19,1.19,0,0,0-.832.971v.694A.8.8,0,0,0,3.032,11c0-.277-.139-.694-.139-.971a2.361,2.361,0,0,1,.139-.971C3.032,8.777,3.032,8.777,3.032,8.5Z" transform="translate(0.852 3.291)"/>
    <path id="Path_28" data-name="Path 28" class="cls-1" d="M12.5,15.1h0Z" transform="translate(4.839 5.846)"/>
    <path id="Path_29" data-name="Path 29" class="cls-1" d="M16.771,10.126V9.432a.8.8,0,0,0-.832-.832V9.987a2.057,2.057,0,0,1-.139.971C16.494,10.958,16.771,10.542,16.771,10.126Z" transform="translate(6.117 3.33)"/>
    <path id="Path_30" data-name="Path 30" class="cls-1" d="M5.4,15.1h0Z" transform="translate(2.091 5.846)"/>
    <path id="Path_31" data-name="Path 31" class="cls-2" d="M0,28.853v3.884H25.94V28.853a7.822,7.822,0,0,0-2.081-5.271l1.387-.694a.136.136,0,0,0,.139-.139c0-.139,0-.139-.139-.139,0,0-2.219-.971-2.774-2.358a4.561,4.561,0,0,0,2.774,1.11c.139,0,.139,0,.277-.139a.192.192,0,0,0,0-.277,27.552,27.552,0,0,1-2.081-5.965c.139-.139.139-.277.277-.277a1.575,1.575,0,0,0,.416-1.11v-.832a2.228,2.228,0,0,0-.694-1.526C23.443,4.994,18.727,0,12.9,0a8.532,8.532,0,0,0-1.8.139A9.727,9.727,0,0,0,7.213,1.8,4.078,4.078,0,0,0,5.549,3.19h0a11.267,11.267,0,0,0-3.19,6.242,10.5,10.5,0,0,0-.139,2.081h0A1.7,1.7,0,0,0,1.8,12.762v.694a1.924,1.924,0,0,0,.971,1.665,34.3,34.3,0,0,0,1.248,6.936A7.655,7.655,0,0,0,0,28.853Zm18.172-6.1c-.139.277-2.774,2.636-2.774,2.636l1.8,1.8-4.161,4.578L8.878,27.188l1.8-1.8s-2.636-2.5-2.774-2.636c-.277-.416,1.665-1.665,1.665-1.665l3.468,10.542,3.468-10.542S18.449,22.333,18.172,22.749Zm-10.681-1.8h0Zm.555,0Zm2.636,2.774H15.4l-2.358,6.936h0Zm6.658-2.774ZM22.194,12.9V11.93c.416.139.832.416.832.832v.694a.9.9,0,0,1-.832.832c0-.277.139-.694.139-.971A.51.51,0,0,1,22.194,12.9ZM5.271,12.207a2.613,2.613,0,0,1,.277-1.11h.139c3.19-.277,11.93-2.219,11.93-2.219a12.327,12.327,0,0,0,3.052,2.913c0,.139.139.277.139.555,0,.139,0,.555,0,.971v.832A4.05,4.05,0,0,1,20.53,15.4a7.845,7.845,0,0,1-7.491,5.271A7.845,7.845,0,0,1,5.549,15.4a4.05,4.05,0,0,1-.277-1.248v-.832A1.52,1.52,0,0,1,5.271,12.207Zm-1.387,0c0,.277-.139.694-.139.971a2.057,2.057,0,0,0,.139.971.9.9,0,0,1-.832-.832v-.555a.9.9,0,0,1,.832-.832C3.884,12.068,3.884,12.068,3.884,12.207Z"/>
    <path id="Path_32" data-name="Path 32" class="cls-3" d="M10.058,24.036,12.416,17.1H7.7l2.219,6.936Z" transform="translate(2.981 6.62)"/>
    <path id="Path_33" data-name="Path 33" class="cls-4" d="M14.532,16.865c.277-.416-1.665-1.665-1.665-1.665L9.4,25.742l4.161-4.578-1.8-1.8A21.362,21.362,0,0,0,14.532,16.865Z" transform="translate(3.639 5.885)"/>
    <path id="Path_34" data-name="Path 34" class="cls-4" d="M10.835,25.742,7.367,15.2s-1.8,1.248-1.665,1.665c.139.277,2.774,2.636,2.774,2.636l-1.8,1.8Z" transform="translate(2.205 5.885)"/>
  </g>
</svg>
