<svg xmlns="http://www.w3.org/2000/svg" viewBox="138 270 25.964 32.737">
  <defs>
    <style>
      .cls-1 {
        fill: none;
      }

      .cls-2 {
        fill: #fff;
      }

      .cls-3 {
        fill: #402b56;
      }

      .cls-4 {
        fill: #e74683;
      }
    </style>
  </defs>
  <g id="Group_2" data-name="Group 2" transform="translate(138 270)">
    <path id="Path_8" data-name="Path 8" class="cls-1" d="M2.947,8.2a.91.91,0,0,0-.847.847v.706a.813.813,0,0,0,.847.847V8.764C2.947,8.482,2.947,8.341,2.947,8.2Z" transform="translate(0.863 3.371)"/>
    <path id="Path_9" data-name="Path 9" class="cls-1" d="M18.74,8.258C15.635,7.975,6.887,6,6.887,6a12.171,12.171,0,0,1-3.1,2.822c0,.141-.141.282-.141.564,0,.423-.141.706-.141,1.129v.847a4.12,4.12,0,0,0,.282,1.27,7.8,7.8,0,0,0,7.479,5.362,7.671,7.671,0,0,0,7.479-5.362,4.12,4.12,0,0,0,.282-1.27v-.847a3.107,3.107,0,0,0-.141-1.129A3.321,3.321,0,0,0,18.6,8.258Z" transform="translate(1.439 2.466)"/>
    <path id="Path_10" data-name="Path 10" class="cls-1" d="M16.447,9.752V9.047a.894.894,0,0,0-.706-.847c0,.141-.141.282-.141.423,0,.282.141.706.141.988V10.6A.79.79,0,0,0,16.447,9.752Z" transform="translate(6.413 3.371)"/>
    <path id="Path_11" data-name="Path 11" class="cls-2" d="M11.932,18.228l1.129,7.2h1.27L16.306,14.7h-1.27a8.522,8.522,0,0,1-4.233.988A10.37,10.37,0,0,1,6.57,14.7H5.3L7.275,25.424h1.27l1.129-7.2h0L8.545,16.252h4.233l-.847,1.975Z" transform="translate(2.179 6.043)"/>
    <path id="Path_12" data-name="Path 12" class="cls-3" d="M16.51,25.424H9.454L7.479,14.7A8.128,8.128,0,0,0,0,22.743v3.951H25.964V22.743A8.128,8.128,0,0,0,18.485,14.7Z" transform="translate(0 6.043)"/>
    <path id="Path_13" data-name="Path 13" class="cls-4" d="M7.6,24.972h4.374l-.988-7.2h-.141L11.974,15.8H7.741l.988,1.976h0Z" transform="translate(3.124 6.495)"/>
    <path id="Path_14" data-name="Path 14" class="cls-3" d="M1.2,12.417v.706A2.2,2.2,0,0,0,3.458,15.24H3.6a9.262,9.262,0,0,0,4.515,5.5,8.522,8.522,0,0,0,4.233.988,10.37,10.37,0,0,0,4.233-.988,8.384,8.384,0,0,0,4.515-5.5h.141a2.2,2.2,0,0,0,2.258-2.117v-.706A2.23,2.23,0,0,0,21.661,10.3V8.466h0a9.481,9.481,0,0,0-1.411-3.951,7.4,7.4,0,0,0-1.411-1.552A8.238,8.238,0,0,0,13.476.847V.706L13.335.564a.493.493,0,0,0-.282.141h0a.733.733,0,0,1-.564-.282A1.289,1.289,0,0,0,11.783,0h0A7.377,7.377,0,0,0,9.525.847c-.141.141-.282.141-.423.282A8.64,8.64,0,0,0,3.034,9.313h0v.847A2.413,2.413,0,0,0,1.2,12.417Zm20.461-.847a.894.894,0,0,1,.706.847v.706a.813.813,0,0,1-.847.847v-.988a2.4,2.4,0,0,0-.141-.988C21.661,11.853,21.661,11.712,21.661,11.571Zm-16.933.282a1.067,1.067,0,0,1,.141-.564A14.216,14.216,0,0,0,7.832,8.466s8.749,1.975,11.853,2.258h.282a3.321,3.321,0,0,1,.282,1.129c0,.423.141.706.141,1.129v.847a4.12,4.12,0,0,1-.282,1.27,7.8,7.8,0,0,1-7.479,5.362A7.671,7.671,0,0,1,5.151,15.1a4.12,4.12,0,0,1-.282-1.27v-.847A1.132,1.132,0,0,1,4.728,11.853Zm-2.117.564a.813.813,0,0,1,.847-.847v2.4a.91.91,0,0,1-.847-.847v-.706Z" transform="translate(0.493)"/>
  </g>
</svg>
