<svg xmlns="http://www.w3.org/2000/svg" viewBox="478 278.195 33.408 24.605">
  <defs>
    <style>
      .cls-1 {
        fill: #e74683;
      }

      .cls-2 {
        fill: #402b56;
      }
    </style>
  </defs>
  <g id="Group_3" data-name="Group 3" transform="translate(478 278.195)">
    <path id="Path_15" data-name="Path 15" class="cls-1" d="M21.59,4.628V1.467A1.4,1.4,0,0,0,20.235,0H10.867A1.423,1.423,0,0,0,9.4,1.467v3.16h1.919V1.919h8.352V4.628H21.59Z" transform="translate(1.209)"/>
    <path id="Path_16" data-name="Path 16" class="cls-2" d="M33.408,5.342A1.468,1.468,0,0,0,31.941,4.1H1.467A1.562,1.562,0,0,0,0,5.342l14.334,9.368v-.339h4.628V14.6Z" transform="translate(0 0.528)"/>
    <path id="Path_17" data-name="Path 17" class="cls-2" d="M0,5.7V22.4a1.494,1.494,0,0,0,1.467,1.467H31.828A1.494,1.494,0,0,0,33.3,22.4V5.7L18.962,14.955v2.709H14.334v-2.6Z" transform="translate(0 0.733)"/>
    <path id="Path_18" data-name="Path 18" class="cls-1" d="M16.9,15.019,31.234,5.764V5.2L16.9,14.455v.564Z" transform="translate(2.174 0.669)"/>
    <path id="Path_19" data-name="Path 19" class="cls-1" d="M0,5.426v.339l14.334,9.368v-.564L0,5.2Z" transform="translate(0 0.669)"/>
    <path id="Path_20" data-name="Path 20" class="cls-1" d="M12.7,13.539V16.7h4.628V13.2H12.7v.339Zm.677.226h3.5v2.6h-3.5v-2.6Z" transform="translate(1.634 1.698)"/>
  </g>
</svg>
