<svg xmlns="http://www.w3.org/2000/svg" viewBox="2333.357 330.379 41.693 29.379">
  <defs>
    <style>
      .cls-1 {
        fill: #d9d9d9;
      }

      .cls-2, .cls-3, .cls-5 {
        fill: none;
      }

      .cls-2 {
        stroke: #d7006d;
      }

      .cls-2, .cls-3 {
        stroke-width: 4px;
      }

      .cls-3 {
        stroke: #644b78;
      }

      .cls-4 {
        stroke: none;
      }
    </style>
  </defs>
  <g id="search_icon" transform="translate(671.081 -44.226)">
    <path id="Subtraction_1" data-name="Subtraction 1" class="cls-1" d="M15.748,13.244h0A8.634,8.634,0,0,0,7.284,2.931,8.692,8.692,0,0,0,0,6.94c.057-.284.128-.564.211-.834A8.552,8.552,0,0,1,3.375,1.66,8.6,8.6,0,0,1,10.982.379a8.633,8.633,0,0,1,4.767,12.865Z" transform="translate(1681.55 380.125)"/>
    <path id="Path_1532" data-name="Path 1532" class="cls-2" d="M14.215,0,0,11.2" transform="translate(1667.194 387.253) rotate(17)"/>
    <g id="Ellipse_17" data-name="Ellipse 17" class="cls-3" transform="translate(1682.548 374.605) rotate(17)">
      <circle class="cls-4" cx="11.2" cy="11.2" r="11.2"/>
      <circle class="cls-5" cx="11.2" cy="11.2" r="9.2"/>
    </g>
  </g>
</svg>
